<svg xmlns="http://www.w3.org/2000/svg" viewBox="0 0 339.43 295.27" role="img" aria-label="USDT">
  <path fill="#26a17b" d="M62.15,1.45l-61.89,130a2.52,2.52,0,0,0,.54,2.94L167.95,294.56a2.55,2.55,0,0,0,3.53,0L338.63,134.4a2.52,2.52,0,0,0,.54-2.94l-61.89-130A2.5,2.5,0,0,0,275,0H64.45a2.5,2.5,0,0,0-2.3,1.45h0Z"/>
  <path fill="#fff" d="M191.19,144.8v0c-1.2.09-7.4,0.46-21.23,0.46-11,0-18.81-.33-21.55-0.46v0c-42.51-1.87-74.24-9.27-74.24-18.13s31.73-16.26,74.24-18.15V63.17c0,0,0,0,0,0h0V63h0.09c1.73,0,11.43.12,21.46,0.12,7.83,0,17.84-.09,21.55-.12h0v45.45h0c42.51,1.89,74.24,9.29,74.24,18.15s-31.73,16.24-74.24,18.13"/>
  <path fill="#fff" d="M191.19,212.05v41.92c0,0,0,0,0,0h0c-1.73,0-11.43-.12-21.46-.12-7.83,0-17.84.09-21.55.12h0V212.05c-42.51-1.89-74.24-9.29-74.24-18.15s31.73-16.24,74.24-18.13V127.57c0,0,0,0,0,0h0c1.73,0,11.43.12,21.46,0.12,7.83,0,17.84-.09,21.55-.12h0v48.2h0c42.51,1.89,74.24,9.29,74.24,18.15S233.7,210.16,191.19,212.05"/>
</svg>
